<svg width="808" height="541" viewBox="0 0 808 541" fill="none" xmlns="http://www.w3.org/2000/svg">
<rect width="808" height="541" rx="4" fill="#3AA94C"/>
<path opacity="0.7" fill-rule="evenodd" clip-rule="evenodd" d="M774.681 31.0482H33.3206V99.1921H178.781H179.781V100.192V441.827V442.827H178.781H33.3206V509.937H774.681V442.827H774.678H629.218H628.218V441.827V100.192V99.1921H629.218H774.678H774.681V31.0482ZM774.678 193.365V100.192H629.218V441.827H774.678V348.652H726.179H725.179V347.652V194.365V193.365H726.179H774.678ZM774.678 194.365V347.652H726.179V194.365H774.678ZM32.3206 442.827V509.937V510.937H33.3206H774.681H775.681V509.937V31.0482V30.0482H774.681H33.3206H32.3206V31.0482V99.1921V100.192V193.365V194.365V347.652V348.652V441.827V442.827ZM33.3206 441.827H178.781V100.192H33.3206V193.365H81.8206H82.8206V194.365V347.652V348.652H81.8206H33.3206V441.827ZM33.3206 347.652H81.8206V194.365H33.3206V347.652ZM402.99 188.352V34.0767H403.99V188.346C403.993 188.346 403.996 188.346 403.999 188.346C449.74 188.346 486.819 225.127 486.819 270.498C486.819 315.869 449.74 352.65 403.999 352.65C403.996 352.65 403.993 352.65 403.99 352.65V506.935H402.99V352.644C357.715 352.107 321.179 315.535 321.179 270.498C321.179 225.461 357.715 188.889 402.99 188.352ZM402.99 189.352C358.26 189.889 322.179 226.021 322.179 270.498C322.179 314.975 358.259 351.107 402.99 351.644L402.99 189.352ZM403.99 189.346L403.99 351.65C403.993 351.65 403.996 351.65 403.999 351.65C449.195 351.65 485.819 315.309 485.819 270.498C485.819 225.687 449.195 189.346 403.999 189.346C403.996 189.346 403.993 189.346 403.99 189.346Z" fill="white" fill-opacity="0.7"/>
<rect width="808" height="541" rx="4" fill="url(#paint0_radial_1586_285)"/>
<defs>
<radialGradient id="paint0_radial_1586_285" cx="0" cy="0" r="1" gradientUnits="userSpaceOnUse" gradientTransform="translate(404 270.5) rotate(90) scale(397.735 505.956)">
<stop stop-color="#3AA94C" stop-opacity="0"/>
<stop offset="0.541667" stop-color="#1B4D23" stop-opacity="0.42"/>
<stop offset="0.734375" stop-color="#0F2D14" stop-opacity="0.45"/>
<stop offset="1" stop-opacity="0.33"/>
</radialGradient>
</defs>
</svg>
